<svg width="66" height="23" viewBox="0 0 66 23" fill="none" xmlns="http://www.w3.org/2000/svg">
<path d="M9.7334 22H5.5V5.68164L0.446289 7.24902V3.80664L9.2793 0.642578H9.7334V22ZM31.0322 13.1816C31.0322 16.1309 30.4219 18.3867 29.2012 19.9492C27.9805 21.5117 26.1934 22.293 23.8398 22.293C21.5156 22.293 19.7383 21.5264 18.5078 19.9932C17.2773 18.46 16.6475 16.2627 16.6182 13.4014V9.47559C16.6182 6.49707 17.2334 4.23633 18.4639 2.69336C19.7041 1.15039 21.4863 0.378906 23.8105 0.378906C26.1348 0.378906 27.9121 1.14551 29.1426 2.67871C30.373 4.20215 31.0029 6.39453 31.0322 9.25586V13.1816ZM26.7988 8.875C26.7988 7.10742 26.5547 5.82324 26.0664 5.02246C25.5879 4.21191 24.8359 3.80664 23.8105 3.80664C22.8145 3.80664 22.0771 4.19238 21.5986 4.96387C21.1299 5.72559 20.8809 6.92188 20.8516 8.55273V13.7383C20.8516 15.4766 21.0859 16.7705 21.5547 17.6201C22.0332 18.46 22.7949 18.8799 23.8398 18.8799C24.875 18.8799 25.6221 18.4746 26.0811 17.6641C26.54 16.8535 26.7793 15.6133 26.7988 13.9434V8.875ZM48.2588 13.1816C48.2588 16.1309 47.6484 18.3867 46.4277 19.9492C45.207 21.5117 43.4199 22.293 41.0664 22.293C38.7422 22.293 36.9648 21.5264 35.7344 19.9932C34.5039 18.46 33.874 16.2627 33.8447 13.4014V9.47559C33.8447 6.49707 34.46 4.23633 35.6904 2.69336C36.9307 1.15039 38.7129 0.378906 41.0371 0.378906C43.3613 0.378906 45.1387 1.14551 46.3691 2.67871C47.5996 4.20215 48.2295 6.39453 48.2588 9.25586V13.1816ZM44.0254 8.875C44.0254 7.10742 43.7812 5.82324 43.293 5.02246C42.8145 4.21191 42.0625 3.80664 41.0371 3.80664C40.041 3.80664 39.3037 4.19238 38.8252 4.96387C38.3564 5.72559 38.1074 6.92188 38.0781 8.55273V13.7383C38.0781 15.4766 38.3125 16.7705 38.7812 17.6201C39.2598 18.46 40.0215 18.8799 41.0664 18.8799C42.1016 18.8799 42.8486 18.4746 43.3076 17.6641C43.7666 16.8535 44.0059 15.6133 44.0254 13.9434V8.875ZM65.4854 13.1816C65.4854 16.1309 64.875 18.3867 63.6543 19.9492C62.4336 21.5117 60.6465 22.293 58.293 22.293C55.9688 22.293 54.1914 21.5264 52.9609 19.9932C51.7305 18.46 51.1006 16.2627 51.0713 13.4014V9.47559C51.0713 6.49707 51.6865 4.23633 52.917 2.69336C54.1572 1.15039 55.9395 0.378906 58.2637 0.378906C60.5879 0.378906 62.3652 1.14551 63.5957 2.67871C64.8262 4.20215 65.4561 6.39453 65.4854 9.25586V13.1816ZM61.252 8.875C61.252 7.10742 61.0078 5.82324 60.5195 5.02246C60.041 4.21191 59.2891 3.80664 58.2637 3.80664C57.2676 3.80664 56.5303 4.19238 56.0518 4.96387C55.583 5.72559 55.334 6.92188 55.3047 8.55273V13.7383C55.3047 15.4766 55.5391 16.7705 56.0078 17.6201C56.4863 18.46 57.248 18.8799 58.293 18.8799C59.3281 18.8799 60.0752 18.4746 60.5342 17.6641C60.9932 16.8535 61.2324 15.6133 61.252 13.9434V8.875Z" fill="black"/>
</svg>
