<svg width="93" height="29" viewBox="0 0 93 29" fill="none" xmlns="http://www.w3.org/2000/svg">
<path d="M15.0693 22H0.450195V19.0996L7.34961 11.7461C8.29688 10.7109 8.99512 9.80762 9.44434 9.03613C9.90332 8.26465 10.1328 7.53223 10.1328 6.83887C10.1328 5.8916 9.89355 5.14941 9.41504 4.6123C8.93652 4.06543 8.25293 3.79199 7.36426 3.79199C6.40723 3.79199 5.65039 4.12402 5.09375 4.78809C4.54688 5.44238 4.27344 6.30664 4.27344 7.38086H0.0253906C0.0253906 6.08203 0.333008 4.89551 0.948242 3.82129C1.57324 2.74707 2.45215 1.90723 3.58496 1.30176C4.71777 0.686523 6.00195 0.378906 7.4375 0.378906C9.63477 0.378906 11.3389 0.90625 12.5498 1.96094C13.7705 3.01562 14.3809 4.50488 14.3809 6.42871C14.3809 7.4834 14.1074 8.55762 13.5605 9.65137C13.0137 10.7451 12.0762 12.0195 10.748 13.4746L5.89941 18.5869H15.0693V22ZM32.0322 13.1816C32.0322 16.1309 31.4219 18.3867 30.2012 19.9492C28.9805 21.5117 27.1934 22.293 24.8398 22.293C22.5156 22.293 20.7383 21.5264 19.5078 19.9932C18.2773 18.46 17.6475 16.2627 17.6182 13.4014V9.47559C17.6182 6.49707 18.2334 4.23633 19.4639 2.69336C20.7041 1.15039 22.4863 0.378906 24.8105 0.378906C27.1348 0.378906 28.9121 1.14551 30.1426 2.67871C31.373 4.20215 32.0029 6.39453 32.0322 9.25586V13.1816ZM27.7988 8.875C27.7988 7.10742 27.5547 5.82324 27.0664 5.02246C26.5879 4.21191 25.8359 3.80664 24.8105 3.80664C23.8145 3.80664 23.0771 4.19238 22.5986 4.96387C22.1299 5.72559 21.8809 6.92188 21.8516 8.55273V13.7383C21.8516 15.4766 22.0859 16.7705 22.5547 17.6201C23.0332 18.46 23.7949 18.8799 24.8398 18.8799C25.875 18.8799 26.6221 18.4746 27.0811 17.6641C27.54 16.8535 27.7793 15.6133 27.7988 13.9434V8.875ZM49.2588 13.1816C49.2588 16.1309 48.6484 18.3867 47.4277 19.9492C46.207 21.5117 44.4199 22.293 42.0664 22.293C39.7422 22.293 37.9648 21.5264 36.7344 19.9932C35.5039 18.46 34.874 16.2627 34.8447 13.4014V9.47559C34.8447 6.49707 35.46 4.23633 36.6904 2.69336C37.9307 1.15039 39.7129 0.378906 42.0371 0.378906C44.3613 0.378906 46.1387 1.14551 47.3691 2.67871C48.5996 4.20215 49.2295 6.39453 49.2588 9.25586V13.1816ZM45.0254 8.875C45.0254 7.10742 44.7812 5.82324 44.293 5.02246C43.8145 4.21191 43.0625 3.80664 42.0371 3.80664C41.041 3.80664 40.3037 4.19238 39.8252 4.96387C39.3564 5.72559 39.1074 6.92188 39.0781 8.55273V13.7383C39.0781 15.4766 39.3125 16.7705 39.7812 17.6201C40.2598 18.46 41.0215 18.8799 42.0664 18.8799C43.1016 18.8799 43.8486 18.4746 44.3076 17.6641C44.7666 16.8535 45.0059 15.6133 45.0254 13.9434V8.875ZM66.5732 14.2217C66.5732 16.6631 66.0166 18.6211 64.9033 20.0957C63.7998 21.5605 62.3057 22.293 60.4209 22.293C58.8193 22.293 57.5254 21.7363 56.5391 20.623V28.0938H52.3057V6.15039H56.2314L56.3779 7.70312C57.4033 6.47266 58.7412 5.85742 60.3916 5.85742C62.3447 5.85742 63.8633 6.58008 64.9473 8.02539C66.0312 9.4707 66.5732 11.4629 66.5732 14.002V14.2217ZM62.3398 13.9141C62.3398 12.4395 62.0762 11.3018 61.5488 10.501C61.0312 9.7002 60.2744 9.2998 59.2783 9.2998C57.9502 9.2998 57.0371 9.80762 56.5391 10.8232V17.3125C57.0566 18.3574 57.9795 18.8799 59.3076 18.8799C61.3291 18.8799 62.3398 17.2246 62.3398 13.9141ZM74.2783 2.25391V6.15039H76.9883V9.25586H74.2783V17.166C74.2783 17.752 74.3906 18.1719 74.6152 18.4258C74.8398 18.6797 75.2695 18.8066 75.9043 18.8066C76.373 18.8066 76.7881 18.7725 77.1494 18.7041V21.9121C76.3193 22.166 75.4648 22.293 74.5859 22.293C71.6172 22.293 70.1035 20.7939 70.0449 17.7959V9.25586H67.7305V6.15039H70.0449V2.25391H74.2783ZM87.9307 17.6201C87.9307 17.1025 87.6719 16.6973 87.1543 16.4043C86.6465 16.1016 85.8262 15.833 84.6934 15.5986C80.9238 14.8076 79.0391 13.2061 79.0391 10.7939C79.0391 9.3877 79.6201 8.21582 80.7822 7.27832C81.9541 6.33105 83.4824 5.85742 85.3672 5.85742C87.3789 5.85742 88.9854 6.33105 90.1865 7.27832C91.3975 8.22559 92.0029 9.45605 92.0029 10.9697H87.7695C87.7695 10.3643 87.5742 9.86621 87.1836 9.47559C86.793 9.0752 86.1826 8.875 85.3525 8.875C84.6396 8.875 84.0879 9.03613 83.6973 9.3584C83.3066 9.68066 83.1113 10.0908 83.1113 10.5889C83.1113 11.0576 83.3311 11.4385 83.7705 11.7314C84.2197 12.0146 84.9717 12.2637 86.0264 12.4785C87.0811 12.6836 87.9697 12.918 88.6924 13.1816C90.9287 14.002 92.0469 15.4229 92.0469 17.4443C92.0469 18.8896 91.4268 20.0615 90.1865 20.96C88.9463 21.8486 87.3447 22.293 85.3818 22.293C84.0537 22.293 82.8721 22.0586 81.8369 21.5898C80.8115 21.1113 80.0059 20.4619 79.4199 19.6416C78.834 18.8115 78.541 17.918 78.541 16.9609H82.5547C82.5938 17.7129 82.8721 18.2891 83.3896 18.6895C83.9072 19.0898 84.6006 19.29 85.4697 19.29C86.2803 19.29 86.8906 19.1387 87.3008 18.8359C87.7207 18.5234 87.9307 18.1182 87.9307 17.6201Z" fill="black"/>
</svg>
