<svg width="50" height="23" viewBox="0 0 50 23" fill="none" xmlns="http://www.w3.org/2000/svg">
<path d="M1.0838 11.5117L2.31427 0.671875H14.2674V4.20215H5.78595L5.25861 8.78711C6.26447 8.25 7.3338 7.98145 8.46661 7.98145C10.4979 7.98145 12.0897 8.61133 13.242 9.87109C14.3943 11.1309 14.9705 12.8936 14.9705 15.1592C14.9705 16.5361 14.6776 17.7715 14.0916 18.8652C13.5154 19.9492 12.6854 20.7939 11.6014 21.3994C10.5174 21.9951 9.2381 22.293 7.76349 22.293C6.47443 22.293 5.27814 22.0342 4.17462 21.5166C3.07111 20.9893 2.19708 20.252 1.55255 19.3047C0.917786 18.3574 0.580872 17.2783 0.541809 16.0674H4.73126C4.81915 16.9561 5.12677 17.6494 5.65411 18.1475C6.19122 18.6357 6.88947 18.8799 7.74884 18.8799C8.70587 18.8799 9.44318 18.5381 9.96075 17.8545C10.4783 17.1611 10.7371 16.1846 10.7371 14.9248C10.7371 13.7139 10.4393 12.7861 9.84357 12.1416C9.24786 11.4971 8.40314 11.1748 7.30939 11.1748C6.30353 11.1748 5.4881 11.4385 4.8631 11.9658L4.45294 12.3467L1.0838 11.5117ZM32.0359 13.1816C32.0359 16.1309 31.4256 18.3867 30.2049 19.9492C28.9842 21.5117 27.1971 22.293 24.8436 22.293C22.5193 22.293 20.742 21.5264 19.5115 19.9932C18.2811 18.46 17.6512 16.2627 17.6219 13.4014V9.47559C17.6219 6.49707 18.2371 4.23633 19.4676 2.69336C20.7078 1.15039 22.4901 0.378906 24.8143 0.378906C27.1385 0.378906 28.9158 1.14551 30.1463 2.67871C31.3768 4.20215 32.0067 6.39453 32.0359 9.25586V13.1816ZM27.8026 8.875C27.8026 7.10742 27.5584 5.82324 27.0701 5.02246C26.5916 4.21191 25.8397 3.80664 24.8143 3.80664C23.8182 3.80664 23.0809 4.19238 22.6024 4.96387C22.1336 5.72559 21.8846 6.92188 21.8553 8.55273V13.7383C21.8553 15.4766 22.0897 16.7705 22.5584 17.6201C23.0369 18.46 23.7986 18.8799 24.8436 18.8799C25.8787 18.8799 26.6258 18.4746 27.0848 17.6641C27.5438 16.8535 27.783 15.6133 27.8026 13.9434V8.875ZM49.2625 13.1816C49.2625 16.1309 48.6522 18.3867 47.4315 19.9492C46.2108 21.5117 44.4236 22.293 42.0701 22.293C39.7459 22.293 37.9686 21.5264 36.7381 19.9932C35.5076 18.46 34.8777 16.2627 34.8484 13.4014V9.47559C34.8484 6.49707 35.4637 4.23633 36.6942 2.69336C37.9344 1.15039 39.7166 0.378906 42.0408 0.378906C44.3651 0.378906 46.1424 1.14551 47.3729 2.67871C48.6033 4.20215 49.2332 6.39453 49.2625 9.25586V13.1816ZM45.0291 8.875C45.0291 7.10742 44.785 5.82324 44.2967 5.02246C43.8182 4.21191 43.0662 3.80664 42.0408 3.80664C41.0447 3.80664 40.3074 4.19238 39.8289 4.96387C39.3602 5.72559 39.1111 6.92188 39.0818 8.55273V13.7383C39.0818 15.4766 39.3162 16.7705 39.785 17.6201C40.2635 18.46 41.0252 18.8799 42.0701 18.8799C43.1053 18.8799 43.8524 18.4746 44.3113 17.6641C44.7703 16.8535 45.0096 15.6133 45.0291 13.9434V8.875Z" fill="black"/>
</svg>
