<svg width="75" height="29" viewBox="0 0 75 29" fill="none" xmlns="http://www.w3.org/2000/svg">
<path d="M1.08209 11.5117L2.31256 0.671875H14.2657V4.20215H5.78424L5.2569 8.78711C6.26276 8.25 7.33209 7.98145 8.4649 7.98145C10.4962 7.98145 12.088 8.61133 13.2403 9.87109C14.3926 11.1309 14.9688 12.8936 14.9688 15.1592C14.9688 16.5361 14.6758 17.7715 14.0899 18.8652C13.5137 19.9492 12.6837 20.7939 11.5997 21.3994C10.5157 21.9951 9.23639 22.293 7.76178 22.293C6.47272 22.293 5.27643 22.0342 4.17291 21.5166C3.0694 20.9893 2.19537 20.252 1.55084 19.3047C0.916077 18.3574 0.579163 17.2783 0.5401 16.0674H4.72955C4.81744 16.9561 5.12506 17.6494 5.6524 18.1475C6.18951 18.6357 6.88776 18.8799 7.74713 18.8799C8.70416 18.8799 9.44147 18.5381 9.95905 17.8545C10.4766 17.1611 10.7354 16.1846 10.7354 14.9248C10.7354 13.7139 10.4376 12.7861 9.84186 12.1416C9.24615 11.4971 8.40143 11.1748 7.30768 11.1748C6.30182 11.1748 5.48639 11.4385 4.86139 11.9658L4.45123 12.3467L1.08209 11.5117ZM32.0342 13.1816C32.0342 16.1309 31.4239 18.3867 30.2032 19.9492C28.9825 21.5117 27.1954 22.293 24.8419 22.293C22.5176 22.293 20.7403 21.5264 19.5098 19.9932C18.2794 18.46 17.6495 16.2627 17.6202 13.4014V9.47559C17.6202 6.49707 18.2354 4.23633 19.4659 2.69336C20.7061 1.15039 22.4883 0.378906 24.8126 0.378906C27.1368 0.378906 28.9141 1.14551 30.1446 2.67871C31.3751 4.20215 32.0049 6.39453 32.0342 9.25586V13.1816ZM27.8008 8.875C27.8008 7.10742 27.5567 5.82324 27.0684 5.02246C26.5899 4.21191 25.838 3.80664 24.8126 3.80664C23.8165 3.80664 23.0792 4.19238 22.6006 4.96387C22.1319 5.72559 21.8829 6.92188 21.8536 8.55273V13.7383C21.8536 15.4766 22.088 16.7705 22.5567 17.6201C23.0352 18.46 23.7969 18.8799 24.8419 18.8799C25.877 18.8799 26.6241 18.4746 27.0831 17.6641C27.5421 16.8535 27.7813 15.6133 27.8008 13.9434V8.875ZM49.3487 14.2217C49.3487 16.6631 48.7921 18.6211 47.6788 20.0957C46.5753 21.5605 45.0811 22.293 43.1964 22.293C41.5948 22.293 40.3008 21.7363 39.3145 20.623V28.0938H35.0811V6.15039H39.0069L39.1534 7.70312C40.1788 6.47266 41.5167 5.85742 43.1671 5.85742C45.1202 5.85742 46.6387 6.58008 47.7227 8.02539C48.8067 9.4707 49.3487 11.4629 49.3487 14.002V14.2217ZM45.1153 13.9141C45.1153 12.4395 44.8516 11.3018 44.3243 10.501C43.8067 9.7002 43.0499 9.2998 42.0538 9.2998C40.7256 9.2998 39.8126 9.80762 39.3145 10.8232V17.3125C39.8321 18.3574 40.7549 18.8799 42.0831 18.8799C44.1046 18.8799 45.1153 17.2246 45.1153 13.9141ZM57.0538 2.25391V6.15039H59.7637V9.25586H57.0538V17.166C57.0538 17.752 57.1661 18.1719 57.3907 18.4258C57.6153 18.6797 58.045 18.8066 58.6797 18.8066C59.1485 18.8066 59.5635 18.7725 59.9249 18.7041V21.9121C59.0948 22.166 58.2403 22.293 57.3614 22.293C54.3926 22.293 52.879 20.7939 52.8204 17.7959V9.25586H50.5059V6.15039H52.8204V2.25391H57.0538ZM70.7061 17.6201C70.7061 17.1025 70.4473 16.6973 69.9297 16.4043C69.4219 16.1016 68.6016 15.833 67.4688 15.5986C63.6993 14.8076 61.8145 13.2061 61.8145 10.7939C61.8145 9.3877 62.3956 8.21582 63.5577 7.27832C64.7296 6.33105 66.2579 5.85742 68.1426 5.85742C70.1544 5.85742 71.7608 6.33105 72.962 7.27832C74.1729 8.22559 74.7784 9.45605 74.7784 10.9697H70.545C70.545 10.3643 70.3497 9.86621 69.959 9.47559C69.5684 9.0752 68.9581 8.875 68.128 8.875C67.4151 8.875 66.8633 9.03613 66.4727 9.3584C66.0821 9.68066 65.8868 10.0908 65.8868 10.5889C65.8868 11.0576 66.1065 11.4385 66.546 11.7314C66.9952 12.0146 67.7471 12.2637 68.8018 12.4785C69.8565 12.6836 70.7452 12.918 71.4678 13.1816C73.7042 14.002 74.8223 15.4229 74.8223 17.4443C74.8223 18.8896 74.2022 20.0615 72.962 20.96C71.7217 21.8486 70.1202 22.293 68.1573 22.293C66.8292 22.293 65.6475 22.0586 64.6124 21.5898C63.587 21.1113 62.7813 20.4619 62.1954 19.6416C61.6094 18.8115 61.3165 17.918 61.3165 16.9609H65.3301C65.3692 17.7129 65.6475 18.2891 66.1651 18.6895C66.6827 19.0898 67.376 19.29 68.2452 19.29C69.0557 19.29 69.6661 19.1387 70.0762 18.8359C70.4962 18.5234 70.7061 18.1182 70.7061 17.6201Z" fill="black"/>
</svg>
