<svg width="51" height="23" viewBox="0 0 51 23" fill="none" xmlns="http://www.w3.org/2000/svg">
<path d="M15.9521 3.04492L7.70508 22H3.2373L11.499 4.09961H0.893555V0.671875H15.9521V3.04492ZM19.3066 11.5117L20.5371 0.671875H32.4902V4.20215H24.0088L23.4814 8.78711C24.4873 8.25 25.5566 7.98145 26.6895 7.98145C28.7207 7.98145 30.3125 8.61133 31.4648 9.87109C32.6172 11.1309 33.1934 12.8936 33.1934 15.1592C33.1934 16.5361 32.9004 17.7715 32.3145 18.8652C31.7383 19.9492 30.9082 20.7939 29.8242 21.3994C28.7402 21.9951 27.4609 22.293 25.9863 22.293C24.6973 22.293 23.501 22.0342 22.3975 21.5166C21.2939 20.9893 20.4199 20.252 19.7754 19.3047C19.1406 18.3574 18.8037 17.2783 18.7646 16.0674H22.9541C23.042 16.9561 23.3496 17.6494 23.877 18.1475C24.4141 18.6357 25.1123 18.8799 25.9717 18.8799C26.9287 18.8799 27.666 18.5381 28.1836 17.8545C28.7012 17.1611 28.96 16.1846 28.96 14.9248C28.96 13.7139 28.6621 12.7861 28.0664 12.1416C27.4707 11.4971 26.626 11.1748 25.5322 11.1748C24.5264 11.1748 23.7109 11.4385 23.0859 11.9658L22.6758 12.3467L19.3066 11.5117ZM50.2588 13.1816C50.2588 16.1309 49.6484 18.3867 48.4277 19.9492C47.207 21.5117 45.4199 22.293 43.0664 22.293C40.7422 22.293 38.9648 21.5264 37.7344 19.9932C36.5039 18.46 35.874 16.2627 35.8447 13.4014V9.47559C35.8447 6.49707 36.46 4.23633 37.6904 2.69336C38.9307 1.15039 40.7129 0.378906 43.0371 0.378906C45.3613 0.378906 47.1387 1.14551 48.3691 2.67871C49.5996 4.20215 50.2295 6.39453 50.2588 9.25586V13.1816ZM46.0254 8.875C46.0254 7.10742 45.7812 5.82324 45.293 5.02246C44.8145 4.21191 44.0625 3.80664 43.0371 3.80664C42.041 3.80664 41.3037 4.19238 40.8252 4.96387C40.3564 5.72559 40.1074 6.92188 40.0781 8.55273V13.7383C40.0781 15.4766 40.3125 16.7705 40.7812 17.6201C41.2598 18.46 42.0215 18.8799 43.0664 18.8799C44.1016 18.8799 44.8486 18.4746 45.3076 17.6641C45.7666 16.8535 46.0059 15.6133 46.0254 13.9434V8.875Z" fill="black"/>
</svg>
