<svg width="76" height="29" viewBox="0 0 76 29" fill="none" xmlns="http://www.w3.org/2000/svg">
<path d="M15.9521 3.04492L7.70508 22H3.2373L11.499 4.09961H0.893555V0.671875H15.9521V3.04492ZM19.3066 11.5117L20.5371 0.671875H32.4902V4.20215H24.0088L23.4814 8.78711C24.4873 8.25 25.5566 7.98145 26.6895 7.98145C28.7207 7.98145 30.3125 8.61133 31.4648 9.87109C32.6172 11.1309 33.1934 12.8936 33.1934 15.1592C33.1934 16.5361 32.9004 17.7715 32.3145 18.8652C31.7383 19.9492 30.9082 20.7939 29.8242 21.3994C28.7402 21.9951 27.4609 22.293 25.9863 22.293C24.6973 22.293 23.501 22.0342 22.3975 21.5166C21.2939 20.9893 20.4199 20.252 19.7754 19.3047C19.1406 18.3574 18.8037 17.2783 18.7646 16.0674H22.9541C23.042 16.9561 23.3496 17.6494 23.877 18.1475C24.4141 18.6357 25.1123 18.8799 25.9717 18.8799C26.9287 18.8799 27.666 18.5381 28.1836 17.8545C28.7012 17.1611 28.96 16.1846 28.96 14.9248C28.96 13.7139 28.6621 12.7861 28.0664 12.1416C27.4707 11.4971 26.626 11.1748 25.5322 11.1748C24.5264 11.1748 23.7109 11.4385 23.0859 11.9658L22.6758 12.3467L19.3066 11.5117ZM50.3467 14.2217C50.3467 16.6631 49.79 18.6211 48.6768 20.0957C47.5732 21.5605 46.0791 22.293 44.1943 22.293C42.5928 22.293 41.2988 21.7363 40.3125 20.623V28.0938H36.0791V6.15039H40.0049L40.1514 7.70312C41.1768 6.47266 42.5146 5.85742 44.165 5.85742C46.1182 5.85742 47.6367 6.58008 48.7207 8.02539C49.8047 9.4707 50.3467 11.4629 50.3467 14.002V14.2217ZM46.1133 13.9141C46.1133 12.4395 45.8496 11.3018 45.3223 10.501C44.8047 9.7002 44.0479 9.2998 43.0518 9.2998C41.7236 9.2998 40.8105 9.80762 40.3125 10.8232V17.3125C40.8301 18.3574 41.7529 18.8799 43.0811 18.8799C45.1025 18.8799 46.1133 17.2246 46.1133 13.9141ZM58.0518 2.25391V6.15039H60.7617V9.25586H58.0518V17.166C58.0518 17.752 58.1641 18.1719 58.3887 18.4258C58.6133 18.6797 59.043 18.8066 59.6777 18.8066C60.1465 18.8066 60.5615 18.7725 60.9229 18.7041V21.9121C60.0928 22.166 59.2383 22.293 58.3594 22.293C55.3906 22.293 53.877 20.7939 53.8184 17.7959V9.25586H51.5039V6.15039H53.8184V2.25391H58.0518ZM71.7041 17.6201C71.7041 17.1025 71.4453 16.6973 70.9277 16.4043C70.4199 16.1016 69.5996 15.833 68.4668 15.5986C64.6973 14.8076 62.8125 13.2061 62.8125 10.7939C62.8125 9.3877 63.3936 8.21582 64.5557 7.27832C65.7275 6.33105 67.2559 5.85742 69.1406 5.85742C71.1523 5.85742 72.7588 6.33105 73.96 7.27832C75.1709 8.22559 75.7764 9.45605 75.7764 10.9697H71.543C71.543 10.3643 71.3477 9.86621 70.957 9.47559C70.5664 9.0752 69.9561 8.875 69.126 8.875C68.4131 8.875 67.8613 9.03613 67.4707 9.3584C67.0801 9.68066 66.8848 10.0908 66.8848 10.5889C66.8848 11.0576 67.1045 11.4385 67.5439 11.7314C67.9932 12.0146 68.7451 12.2637 69.7998 12.4785C70.8545 12.6836 71.7432 12.918 72.4658 13.1816C74.7021 14.002 75.8203 15.4229 75.8203 17.4443C75.8203 18.8896 75.2002 20.0615 73.96 20.96C72.7197 21.8486 71.1182 22.293 69.1553 22.293C67.8271 22.293 66.6455 22.0586 65.6104 21.5898C64.585 21.1113 63.7793 20.4619 63.1934 19.6416C62.6074 18.8115 62.3145 17.918 62.3145 16.9609H66.3281C66.3672 17.7129 66.6455 18.2891 67.1631 18.6895C67.6807 19.0898 68.374 19.29 69.2432 19.29C70.0537 19.29 70.6641 19.1387 71.0742 18.8359C71.4941 18.5234 71.7041 18.1182 71.7041 17.6201Z" fill="black"/>
</svg>
