<svg width="41" height="48" viewBox="0 0 41 48" fill="none" xmlns="http://www.w3.org/2000/svg">
<path d="M40.0166 1.22668C39.4009 0.717485 38.6815 0.757919 38.0924 1.33495L20.5081 18.5548L2.94301 0.493518C2.36372 -0.102143 1.61994 -0.162915 1.00197 0.334708C0.383924 0.83233 0 1.80115 0 2.86301V22.3353C0 25.2275 0.941797 27.9226 2.51929 29.5446L20.1625 47.6861C20.2643 47.7907 20.3821 47.8433 20.5 47.8433C20.6134 47.8433 20.7268 47.7948 20.8262 47.6974L38.3733 30.5141C40.0181 28.9033 41 26.168 41 23.197V3.73988C41 2.67546 40.6324 1.73599 40.0166 1.22668ZM39.7965 23.197C39.7965 25.5447 39.0205 27.7063 37.7208 28.9791L20.5081 45.835L3.19431 28.0323C1.9477 26.7505 1.20352 24.6209 1.20352 22.3354V2.86301C1.20352 2.47305 1.33896 2.13119 1.56594 1.94851C1.66824 1.86606 1.77784 1.82526 1.8868 1.82526C2.01943 1.82526 2.15126 1.88591 2.268 2.00599L20.1625 20.406C20.3622 20.6113 20.6235 20.6157 20.8262 20.4173L38.7448 2.86995C38.9578 2.66121 39.218 2.64647 39.4408 2.83086C39.6635 3.015 39.7965 3.35491 39.7965 3.73988V23.197Z" fill="black"/>
<path d="M3.16908 12.8789C2.83675 12.8789 2.56732 13.2879 2.56732 13.7923V22.5723C2.56732 23.0768 2.83675 23.4857 3.16908 23.4857C3.50142 23.4857 3.77084 23.0768 3.77084 22.5723V13.7923C3.77084 13.2879 3.50142 12.8789 3.16908 12.8789Z" fill="black"/>
<path d="M3.16921 5.83301C2.83687 5.83301 2.56744 6.24197 2.56744 6.74641V9.93712C2.56744 10.4416 2.83687 10.8505 3.16921 10.8505C3.50154 10.8505 3.77097 10.4416 3.77097 9.93712V6.74641C3.77097 6.24185 3.50154 5.83301 3.16921 5.83301Z" fill="black"/>
<path d="M29.1582 15.187L27.3765 16.9316C27.0973 17.2051 27.0169 17.7703 27.1971 18.1943C27.3123 18.465 27.5057 18.6126 27.7033 18.6126C27.8151 18.6126 27.9282 18.5653 28.029 18.4666L29.8106 16.722C30.0898 16.4484 30.1702 15.8832 29.99 15.4593C29.8098 15.0355 29.4374 14.9135 29.1582 15.187Z" fill="black"/>
<path d="M36.3289 8.16502L31.0838 13.3014C30.8046 13.5749 30.7242 14.1403 30.9044 14.5641C31.0195 14.8348 31.2131 14.9824 31.4106 14.9824C31.5224 14.9824 31.6354 14.9352 31.7363 14.8364L36.9813 9.70002C37.2605 9.42649 37.3409 8.86115 37.1607 8.43733C36.9805 8.01339 36.6081 7.89161 36.3289 8.16502Z" fill="black"/>
</svg>
