<svg width="84" height="306" viewBox="0 0 84 306" fill="none" xmlns="http://www.w3.org/2000/svg">
<path d="M42.313 272.741C43.7379 274.499 45.4786 275.286 47.2322 274.988C48.9886 274.689 50.6109 273.348 51.7992 271.212L52.7937 269.727C52.691 269.568 52.5832 269.411 52.4882 269.247C51.7122 267.894 50.9322 266.673 50.1612 265.554L45.9193 271.875C45.6658 272.253 45.3329 272.443 45.0002 272.443C44.6674 272.443 44.3346 272.253 44.0798 271.875C43.5728 271.117 43.5728 269.89 44.081 269.132L48.2241 262.959C47.4195 261.959 46.6369 261.075 45.8855 260.299L42.0193 266.062C41.7658 266.442 41.4329 266.63 41.1002 266.63C40.7673 266.63 40.4346 266.442 40.1811 266.062C39.6728 265.306 39.6728 264.077 40.1811 263.321L43.6313 258.179C40.8909 255.861 38.9604 255.111 38.8108 255.056C38.3701 254.894 37.9034 255.089 37.5809 255.568L34.9926 259.427C34.3998 260.288 33.8096 261.077 33.2233 261.838L34.1632 263.242L42.313 272.741Z" fill="black"/>
<path d="M83.9572 287.436C83.3605 283.014 79.7231 280.613 79.3045 280.349C79.151 280.254 78.9873 280.202 78.8209 280.198C78.7234 280.196 74.0096 280.055 68.4833 278.766C65.3724 284.379 61.7311 290.746 60.1373 293.125C60.0306 293.284 59.9111 293.448 59.8032 293.609C58.5474 293.708 57.2461 293.778 55.8771 293.803C56.7781 292.582 57.5723 291.467 58.2991 290.384C59.6641 288.348 62.7075 283.055 65.5388 277.983C61.6207 276.796 57.6361 274.976 54.806 272.199L53.7192 273.819C52.1813 276.597 49.9531 278.427 47.5259 278.839C47.1815 278.898 46.8369 278.927 46.495 278.927C45.7813 278.927 45.0819 278.756 44.3968 278.508C41.6863 283.049 39.41 287.645 37.7186 291.985C36.8139 291.799 35.896 291.599 34.9614 291.38C36.6644 286.751 39.0108 281.828 41.8423 276.963C41.4419 276.603 41.0506 276.215 40.6826 275.76L32.4992 266.223C32.4576 266.173 32.4186 266.121 32.3808 266.066L31.1913 264.291C27.1106 268.838 23.2003 270.925 19.5277 270.478C14.0858 269.801 10.9815 263.612 10.9529 263.554C10.7019 263.037 10.299 262.722 9.86741 262.754C9.43978 262.769 9.04322 263.099 8.81044 263.636C4.82467 272.779 6.01158 283.348 6.86044 288.083C6.36136 288.355 6 289.051 6 289.89V299.581C6 300.651 6.58241 301.52 7.29995 301.52H25.5C25.8445 301.52 26.176 301.314 26.4191 300.952L27.1836 299.81C30.6116 301.188 42.1869 305.414 55.0921 305.412C64.7303 305.412 75.1121 303.053 83.3867 295.391C83.7675 295.036 84.0003 294.414 84.0003 293.743V287.928C84.0001 287.762 83.9858 287.595 83.9572 287.436ZM81.4001 292.652C62.0105 309.74 30.7404 297.29 27.1237 295.765C27.0171 295.724 26.9079 295.705 26.8 295.705C26.4593 295.705 26.1278 295.904 25.8809 296.273L24.9618 297.643H8.60006V291.826L19.8828 291.805C21.7339 291.805 23.5254 292.08 25.2089 292.621C26.132 292.917 27.0393 293.196 27.9363 293.462C35.4972 295.708 42.2064 296.932 48.1202 297.451C48.1827 297.457 48.245 297.461 48.3075 297.466C48.9613 297.523 49.6062 297.571 50.2419 297.61C50.4538 297.623 50.6644 297.635 50.8751 297.647C51.3626 297.672 51.8449 297.695 52.3194 297.711C52.638 297.722 52.9512 297.73 53.2632 297.738C53.6454 297.745 54.0237 297.751 54.3982 297.755C54.5528 297.755 54.7141 297.761 54.8662 297.761C54.9832 297.761 55.0898 297.753 55.2055 297.753C56.2013 297.749 57.1763 297.728 58.1161 297.684C58.1967 297.68 58.2721 297.674 58.3527 297.67C59.2471 297.625 60.1117 297.56 60.9554 297.482C61.1179 297.468 61.2843 297.455 61.4455 297.437C62.3074 297.352 63.1433 297.249 63.9518 297.135C64.1104 297.112 64.2652 297.087 64.4224 297.063C65.2219 296.943 66.0019 296.811 66.7495 296.666C66.7716 296.662 66.7962 296.658 66.8183 296.654C67.5866 296.503 68.3172 296.338 69.0296 296.166C69.1687 296.131 69.3078 296.098 69.4457 296.063C70.1268 295.893 70.7846 295.715 71.4138 295.528C71.5153 295.499 71.6102 295.468 71.7089 295.437C72.2953 295.261 72.8594 295.079 73.4002 294.891C73.4717 294.866 73.5484 294.843 73.6199 294.817C74.1906 294.616 74.73 294.41 75.2487 294.205C75.3566 294.16 75.4619 294.117 75.5673 294.075C76.0743 293.867 76.5618 293.66 77.0181 293.453C77.0584 293.433 77.0947 293.416 77.1364 293.397C77.5668 293.199 77.971 293.003 78.3558 292.807C78.4312 292.771 78.5078 292.732 78.5807 292.695C78.9693 292.495 79.332 292.299 79.6727 292.107C79.7441 292.067 79.8104 292.028 79.8806 291.989C80.2044 291.803 80.5124 291.621 80.7906 291.448C80.8035 291.441 80.8178 291.433 80.8296 291.425C81.0323 291.299 81.2222 291.177 81.4002 291.061V292.652H81.4001Z" fill="black"/>
<path d="M72.9091 141.247C72.7589 140.849 72.4464 140.521 72.0393 140.343L58.1217 134.272C55.1612 133.325 52.1451 132.576 49.0996 132.029C48.9924 132.01 48.8857 132 48.7805 132C48.0266 132 47.3515 132.492 47.1835 133.213C46.0714 137.839 41.7375 141.302 36.4998 141.302C31.2623 141.302 26.9281 137.839 25.8163 133.213C25.6464 132.492 24.9725 132 24.2191 132C24.1139 132 24.0072 132.01 23.9 132.029C20.8547 132.576 17.8387 133.325 14.8735 134.272L0.960759 140.343C0.551205 140.521 0.236505 140.848 0.0934827 141.246C-0.0544803 141.649 -0.0278025 142.084 0.18068 142.464L6.22271 153.73C6.50554 154.265 7.08084 154.586 7.68949 154.586C7.8466 154.586 8.00592 154.564 8.16303 154.519L14.8737 152.64V190.441C14.8737 191.3 15.615 192 16.526 192H56.4743C57.3828 192 58.1219 191.3 58.1219 190.441V152.641L64.8373 154.52C64.9944 154.565 65.1535 154.586 65.3103 154.586C65.9178 154.586 66.4908 154.265 66.7776 153.73L72.8219 142.464C73.0254 142.084 73.0546 141.649 72.9091 141.247Z" fill="black"/>
<path d="M35.074 57.8756C54.4448 57.8756 70.148 44.9197 70.148 28.9378C70.148 12.9559 54.4448 0 35.074 0C15.7032 0 0 12.9559 0 28.9378C0 44.9197 15.7032 57.8756 35.074 57.8756Z" fill="#F3E4B2"/>
<path d="M50.6954 16.2367V25.8543C50.6954 25.9934 50.6916 26.1324 50.6875 26.2714C50.6838 26.3853 50.6801 26.496 50.6722 26.6101C50.6685 26.7113 50.6607 26.8125 50.6491 26.9137C50.6454 26.9863 50.6376 27.0592 50.6301 27.1318C50.626 27.1764 50.6223 27.217 50.6145 27.2616C50.607 27.3407 50.5992 27.4228 50.5839 27.5019C50.5686 27.6535 50.5455 27.8024 50.5186 27.9541C50.5149 27.9922 50.5071 28.03 50.4996 28.0679C50.4881 28.1438 50.4728 28.2198 50.4575 28.2955V28.305C50.4348 28.4155 50.4116 28.5231 50.3885 28.6339C50.3538 28.7855 50.3195 28.9375 50.2811 29.086C50.2774 29.0925 50.2774 29.099 50.2737 29.1054C50.27 29.1273 50.2659 29.1497 50.2584 29.1719C50.2547 29.1783 50.2547 29.1845 50.2506 29.1909C50.2316 29.2734 50.2084 29.3521 50.1853 29.4312C50.1779 29.4659 50.17 29.501 50.1548 29.5358C50.1432 29.5927 50.1238 29.6493 50.1089 29.7065C50.0973 29.7382 50.0899 29.7729 50.0742 29.8043C50.0664 29.8329 50.0552 29.8615 50.0474 29.8867C49.9668 30.1461 49.8748 30.3992 49.7789 30.6521C49.7327 30.7724 49.6868 30.8892 49.6373 31.0095C49.6335 31.0221 49.6257 31.0347 49.622 31.0473C49.5761 31.155 49.5299 31.2624 49.484 31.37C49.4687 31.4017 49.4535 31.4331 49.4382 31.4678C49.3919 31.5691 49.3461 31.6703 49.2965 31.7715C49.2391 31.8945 49.1776 32.0148 49.1164 32.1354C49.0627 32.243 49.0053 32.3501 48.9479 32.4577C48.9404 32.4771 48.9289 32.4925 48.921 32.5116C48.8558 32.6254 48.7947 32.7392 48.7294 32.8502C48.6642 32.9671 48.5952 33.0843 48.5225 33.2015C48.3845 33.4322 48.235 33.6632 48.0855 33.8875L47.8786 34.1911C47.288 35.0293 46.633 35.8165 45.9197 36.544C45.8239 36.6483 45.7244 36.7495 45.6207 36.8473C45.479 36.9897 45.3333 37.1287 45.1875 37.2647C45.057 37.385 44.9269 37.5049 44.7927 37.6221C44.4247 37.9479 44.0488 38.2577 43.6656 38.549C43.5888 38.612 43.5086 38.6692 43.4281 38.7292C43.2976 38.827 43.1675 38.9221 43.0332 39.0138C42.93 39.0897 42.8226 39.1623 42.7149 39.2352C42.439 39.4216 42.1631 39.6019 41.8831 39.7695C41.7682 39.8424 41.6493 39.912 41.5304 39.9784C41.3387 40.0922 41.143 40.1999 40.9476 40.3045C40.8402 40.3645 40.7291 40.4214 40.618 40.4752C40.2269 40.6742 39.8321 40.8579 39.441 41.016C39.3452 41.0572 39.2494 41.0953 39.1535 41.1332C39.0577 41.171 38.9582 41.2091 38.8545 41.247C38.7281 41.2943 38.6014 41.3386 38.475 41.3799C38.425 41.3986 38.3754 41.4146 38.3255 41.4272C38.176 41.478 38.0227 41.5251 37.8732 41.5663C37.6857 41.6235 37.4937 41.6709 37.3061 41.7148C37.1757 41.7465 37.0418 41.7748 36.9113 41.8001C36.9035 41.8034 36.896 41.8065 36.8845 41.8065C36.754 41.832 36.6239 41.8573 36.4934 41.8763C36.4591 41.8828 36.4244 41.889 36.3901 41.8923C36.2827 41.908 36.1753 41.924 36.068 41.9336C35.9147 41.9526 35.7611 41.9683 35.6079 41.9745C35.5542 41.9809 35.5046 41.984 35.4509 41.984C35.3283 41.9902 35.2056 41.9935 35.0867 41.9935H35.0751C34.9565 41.9935 34.8376 41.9902 34.7187 41.984C34.6728 41.984 34.6266 41.9809 34.5807 41.9745C34.4734 41.9714 34.3622 41.9619 34.247 41.9492C34.2243 41.9492 34.1975 41.9462 34.1743 41.9428C34.0327 41.9271 33.8906 41.908 33.7452 41.8859C33.6225 41.8699 33.4999 41.8477 33.3731 41.8225C32.7177 41.6992 32.0432 41.5124 31.3609 41.263C30.7782 41.051 30.188 40.7948 29.6015 40.4976C29.3066 40.3491 29.0113 40.191 28.7198 40.0233C28.574 39.9378 28.4286 39.8523 28.2828 39.7637C27.8265 39.4884 27.3742 39.1882 26.9298 38.8655C26.8071 38.7738 26.6845 38.6822 26.5618 38.5874C26.4391 38.4957 26.3165 38.4007 26.1976 38.309C25.8985 38.0719 25.6074 37.8255 25.3236 37.5692C25.2125 37.4711 25.1014 37.3702 24.9899 37.2656C24.6835 36.9811 24.3845 36.687 24.1007 36.38C23.9896 36.2696 23.886 36.1558 23.7827 36.0417C23.3953 35.6178 23.0277 35.1751 22.6825 34.7162C22.5904 34.5931 22.4983 34.4667 22.4103 34.3431C22.3029 34.1945 22.1997 34.0425 22.096 33.8909C21.7127 33.3215 21.36 32.7303 21.0536 32.1197C21.0073 32.0311 20.9615 31.9425 20.9231 31.8542C20.8619 31.7404 20.8082 31.6232 20.7583 31.5094C20.6815 31.3417 20.6088 31.1741 20.5398 31.0064C20.4708 30.8388 20.4056 30.6678 20.3403 30.4973C20.2792 30.3328 20.2218 30.1685 20.1681 30.0009C20.1066 29.8237 20.0491 29.6434 19.9992 29.4601C19.9955 29.441 19.9876 29.422 19.9839 29.4029C19.9112 29.15 19.8459 28.8938 19.7885 28.6345C19.7117 28.293 19.6506 27.9451 19.6047 27.5938C19.5853 27.4834 19.5738 27.3724 19.5626 27.2619C19.5473 27.1447 19.5358 27.0309 19.5279 26.914C19.5089 26.7021 19.4973 26.4868 19.4895 26.2718C19.4858 26.1327 19.4817 25.9937 19.4817 25.8546V16.2367C19.4817 9.13006 26.4619 3.36797 35.0751 3.36182H35.0908C36.279 3.36182 37.4366 3.47225 38.5481 3.67804C39.564 3.86752 40.5416 4.13975 41.4688 4.48427C42.7339 4.95214 43.9105 5.55351 44.9686 6.27147C45.8582 6.87223 46.6669 7.54896 47.3723 8.29552C49.427 10.4555 50.6648 13.1692 50.6916 16.1229C50.6954 16.1607 50.6954 16.1986 50.6954 16.2367Z" fill="#ECC19C"/>
<path d="M55.4218 61.7499V61.753H14.7549V61.7499C14.7549 59.8554 15.1344 58.0306 15.8398 56.3323C15.9662 56.0257 16.1042 55.7221 16.254 55.4215V55.4181C16.3998 55.1176 16.5605 54.8235 16.729 54.5329C17.3998 53.3658 18.2357 52.2744 19.2054 51.2753C19.4507 51.0252 19.6998 50.7816 19.9567 50.5478C20.0831 50.4275 20.2173 50.3109 20.3515 50.1937C20.4853 50.0799 20.6199 49.9661 20.7575 49.8523C21.4439 49.286 22.1795 48.7677 22.9543 48.29C23.3413 48.0528 23.7324 47.8313 24.1387 47.6166C24.5451 47.4047 24.959 47.202 25.3807 47.0125C25.3885 47.0063 25.3959 47.0063 25.3959 47.0063C25.5607 46.9334 25.7218 46.8544 25.8829 46.7722C26.362 46.5351 26.822 46.2724 27.259 45.9817C29.1105 44.7673 30.544 43.1351 31.3605 41.263C31.8475 40.1433 32.1118 38.9384 32.1118 37.6797L35.0747 37.6923L38.1223 37.7052C38.1223 38.948 38.3791 40.1402 38.8545 41.2473C39.6595 43.1259 41.0893 44.7642 42.9408 45.9848C43.2167 46.1715 43.4967 46.3422 43.7916 46.5037C43.8225 46.5225 43.849 46.5381 43.8799 46.5541C44.0179 46.6301 44.1558 46.7058 44.3016 46.7756C44.4586 46.8547 44.6196 46.9337 44.7807 47.0066C44.8075 47.0128 44.8307 47.0223 44.8497 47.0349C45.1871 47.19 45.5204 47.3512 45.8463 47.5188C46.0036 47.5979 46.1606 47.68 46.3138 47.7717C46.6322 47.9393 46.9424 48.1229 47.2455 48.3127C47.2455 48.3158 47.2492 48.3158 47.2492 48.3158H47.253C47.6403 48.553 48.0158 48.8061 48.3838 49.0654C48.7518 49.3251 49.1045 49.5967 49.4456 49.8784C53.1408 52.9136 55.4218 57.1075 55.4218 61.7499Z" fill="#ECC19C"/>
<path d="M55.4204 61.7487H14.7538C14.7538 59.8541 15.1334 58.0291 15.8388 56.3311C15.9652 56.0244 16.1035 55.7208 16.2526 55.4203V55.4169C16.3984 55.1164 16.5595 54.8223 16.728 54.5313C17.3987 53.3646 18.2343 52.2732 19.2044 51.2738C19.4497 51.024 19.6991 50.7804 19.9556 50.5466C20.082 50.4263 20.2162 50.3094 20.3505 50.1925C20.4847 50.0787 20.6189 49.9649 20.7568 49.8511C21.4429 49.2848 22.1788 48.7665 22.9532 48.2887C23.3406 48.0516 23.7313 47.8301 24.1377 47.6151C24.3484 47.5047 24.5594 47.397 24.7738 47.2927C24.9732 47.1946 25.1764 47.0995 25.3796 47.0079C25.3874 47.0014 25.3949 47.0048 25.3949 47.0048V47.0014C25.5597 46.9254 25.7208 46.8498 25.8818 46.7704C26.3609 46.5302 26.821 46.2644 27.2501 45.9734C27.2539 45.9768 27.2539 45.9768 27.258 45.9798C29.2437 47.656 32.0075 48.6966 35.0741 48.7031H35.105C38.1716 48.7031 40.9466 47.6594 42.9401 45.9832L42.9438 45.9798C43.216 46.1666 43.4997 46.3407 43.7909 46.5019C43.8215 46.5206 43.8483 46.5363 43.8789 46.5523C44.0169 46.6283 44.1589 46.7009 44.3006 46.7738C44.4575 46.8528 44.619 46.9288 44.7797 47.0014C44.8065 47.0079 44.8259 47.0205 44.8486 47.03C45.0287 47.1125 45.2129 47.1977 45.3893 47.2859C45.5429 47.3619 45.6961 47.4379 45.8456 47.517C46.0026 47.596 46.1599 47.6781 46.3131 47.7698C46.6315 47.9375 46.9417 48.1211 47.2445 48.3109H47.2523C47.6393 48.5511 48.0189 48.8012 48.3831 49.0633C48.7511 49.3229 49.1038 49.5948 49.4449 49.8763C53.1397 52.9121 55.4204 57.1057 55.4204 61.7487Z" fill="#EB6D4A"/>
<path d="M50.6954 25.8542C50.6954 25.9933 50.6916 26.1323 50.6875 26.2714C50.6838 26.3852 50.6801 26.4959 50.6722 26.61C50.6685 26.7112 50.6607 26.8124 50.6491 26.9136C50.6454 26.9862 50.6376 27.0591 50.6301 27.1317C50.626 27.1763 50.6223 27.2169 50.6145 27.2615C50.607 27.3406 50.5992 27.4227 50.5839 27.5018C50.5645 27.6534 50.5455 27.8051 50.5186 27.954C50.5149 27.9921 50.5071 28.03 50.4996 28.0678C50.4881 28.1438 50.4728 28.2197 50.4575 28.2954C50.4385 28.4092 50.4116 28.523 50.3885 28.6341C50.3579 28.767 50.327 28.8965 50.2927 29.026C50.2886 29.0546 50.2811 29.0798 50.2733 29.1053C50.2696 29.1272 50.2618 29.1496 50.258 29.1718C50.2543 29.1782 50.2543 29.1844 50.2502 29.1909C50.2502 29.2065 50.2465 29.2195 50.2427 29.2321C50.2237 29.2985 50.2081 29.365 50.1853 29.4311C50.1779 29.4659 50.17 29.5009 50.1548 29.5357C50.1391 29.5987 50.1201 29.6587 50.0973 29.719C50.0936 29.7476 50.0858 29.7762 50.0742 29.8042C50.0664 29.8328 50.0552 29.8614 50.0474 29.8867C49.9668 30.146 49.8748 30.3991 49.7789 30.652C49.7327 30.7723 49.6868 30.8892 49.6373 31.0094C49.6335 31.022 49.6257 31.0347 49.622 31.0473C49.5761 31.1549 49.5299 31.2623 49.484 31.3699C49.4687 31.4016 49.4535 31.433 49.4382 31.4678C49.3919 31.569 49.3461 31.6702 49.2965 31.7714C49.2391 31.8944 49.1776 32.0147 49.1164 32.1353C49.0627 32.2429 49.0053 32.35 48.9479 32.4576C48.9404 32.477 48.9289 32.4924 48.921 32.5115C48.8558 32.6253 48.7947 32.7391 48.7294 32.8501C48.6642 32.967 48.5952 33.0842 48.5225 33.2014C48.3845 33.4321 48.235 33.6632 48.0855 33.8874L47.8786 34.191C47.288 35.0292 46.633 35.8164 45.9197 36.5439C45.8239 36.6482 45.7244 36.7494 45.6207 36.8472C45.479 36.9896 45.3333 37.1287 45.1875 37.2646C45.057 37.3849 44.9269 37.5049 44.7927 37.6221C44.4247 37.9478 44.0488 38.2576 43.6656 38.5489C43.5888 38.6119 43.5086 38.6691 43.4281 38.7291C43.2976 38.8269 43.1675 38.922 43.0332 39.0137C42.93 39.0896 42.8226 39.1622 42.7149 39.2351C42.439 39.4216 42.1631 39.6018 41.8831 39.7695C41.7682 39.8424 41.6493 39.9119 41.5304 39.9783C41.3387 40.0921 41.143 40.1998 40.9476 40.3044C40.8402 40.3644 40.7291 40.4213 40.618 40.4751C40.2269 40.6741 39.8321 40.8578 39.441 41.0159C39.3452 41.0571 39.2494 41.0952 39.1535 41.1331C39.0577 41.1709 38.9582 41.2091 38.8545 41.2469C38.7281 41.2943 38.6014 41.3386 38.475 41.3798C38.425 41.3985 38.3754 41.4145 38.3255 41.4271C38.176 41.4779 38.0227 41.525 37.8732 41.5662C37.6857 41.6234 37.4937 41.6708 37.3061 41.7148C37.1757 41.7464 37.0418 41.7747 36.9113 41.8C36.9035 41.8034 36.896 41.8064 36.8845 41.8064C36.754 41.832 36.6239 41.8572 36.4934 41.8763C36.4591 41.8827 36.4244 41.8889 36.3901 41.8923C36.2827 41.9079 36.1753 41.9239 36.068 41.9335C35.9147 41.9525 35.7611 41.9682 35.6079 41.9744C35.5542 41.9808 35.5046 41.9839 35.4509 41.9839C35.3283 41.9901 35.2056 41.9935 35.0867 41.9935H35.0751C34.9565 41.9935 34.8376 41.9901 34.7187 41.9839C34.6728 41.9839 34.6266 41.9808 34.5807 41.9744C34.4734 41.9713 34.3622 41.9618 34.247 41.9492C34.2243 41.9492 34.1975 41.9461 34.1743 41.9427C34.0327 41.927 33.8906 41.9079 33.7452 41.8858C33.6225 41.8698 33.4999 41.8476 33.3731 41.8224C32.7177 41.6991 32.0432 41.5124 31.3609 41.2629C30.7782 41.0509 30.188 40.7947 29.6015 40.4976C29.3066 40.3521 29.0151 40.194 28.7198 40.0232C28.574 39.9377 28.4286 39.8522 28.2828 39.7636C27.8265 39.4883 27.3742 39.1881 26.9298 38.8654C26.8071 38.7737 26.6845 38.6821 26.5618 38.5873C26.4391 38.4957 26.3165 38.4006 26.1976 38.3089C25.8985 38.0718 25.6074 37.8254 25.3236 37.5691C25.2125 37.471 25.1014 37.3701 24.9899 37.2655C24.6835 36.981 24.3845 36.6869 24.1007 36.3799C23.9896 36.2695 23.886 36.1557 23.7827 36.0416C23.3953 35.6177 23.0277 35.175 22.6825 34.7161C22.5904 34.593 22.4983 34.4666 22.4103 34.343C22.3029 34.1944 22.1997 34.0424 22.096 33.8908C21.7127 33.3214 21.36 32.7302 21.0536 32.1196C21.0073 32.031 20.9615 31.9424 20.9231 31.8541C20.8619 31.7403 20.8082 31.6231 20.7583 31.5093C20.6815 31.3416 20.6088 31.174 20.5398 31.0064C20.4708 30.8387 20.4056 30.6677 20.3403 30.4973C20.2792 30.3327 20.2218 30.1684 20.1681 30.0008C20.1066 29.8236 20.0491 29.6433 19.9992 29.46C19.9955 29.4409 19.9876 29.4219 19.9839 29.4028C19.9112 29.1499 19.8459 28.8937 19.7885 28.6344C19.7117 28.293 19.6506 27.9451 19.6047 27.5938C19.5853 27.4833 19.5738 27.3723 19.5626 27.2619C19.5473 27.1447 19.5358 27.0308 19.5279 26.914C19.5089 26.702 19.4973 26.4867 19.4895 26.2717C19.4858 26.1326 19.4817 25.9936 19.4817 25.8546L21.9733 29.8965L26.255 31.4367L31.3181 31.8126H31.3218L35.0744 32.0941H35.0975L38.6085 32.3564C38.6085 32.3564 38.6085 32.3534 38.6122 32.3564L46.4436 32.9387L50.6954 25.8542Z" fill="#543E36"/>
<path d="M35.1057 27.8862L35.102 31.0013V31.0044L35.0982 32.0958V32.9528L35.0945 35.7991V35.8024L35.0908 35.7991H35.087L35.0755 35.7926L19.9988 29.4611C19.9951 29.4421 19.9873 29.423 19.9835 29.4039C19.9108 29.1511 19.8456 28.8948 19.7882 28.6355C19.7114 28.2941 19.6502 27.9462 19.6044 27.5949C19.585 27.4845 19.5734 27.3734 19.5622 27.263C19.5469 27.1458 19.5354 27.032 19.5276 26.9151C19.5085 26.7031 19.497 26.4878 19.4892 26.2728C19.4854 26.1337 19.4813 25.9947 19.4813 25.8557V22.0764C19.4813 22.1302 19.4851 22.1841 19.4851 22.2376C19.5156 23.1515 19.692 24.1571 20.0331 25.1851C20.2978 25.9756 20.627 26.7062 21.0107 27.3577V27.3608C22.0151 29.0846 23.3607 30.2545 24.5985 30.4442C24.6753 30.4538 24.7554 30.4602 24.8322 30.4664C25.3113 30.5107 25.8135 30.5359 26.331 30.5359C28.2862 30.5359 30.0225 29.2393 31.1149 28.7143C31.1227 28.7112 31.1302 28.7078 31.138 28.705C31.1954 28.6764 31.2528 28.6478 31.3028 28.6195C31.3181 28.6103 31.3333 28.6038 31.349 28.5977C32.2688 28.1643 33.5953 27.889 35.0747 27.8862H35.1057V27.8862Z" fill="#543E36"/>
<path d="M50.6983 22.0737L50.6946 25.853C50.6946 26.8016 50.5872 27.7315 50.3881 28.6328C50.3076 28.9933 50.2155 29.3508 50.1081 29.7048L46.5699 33.9206L35.093 35.7961H35.0893L35.0855 35.7995V35.7961L35.074 27.882H35.1049C36.5843 27.8853 37.9146 28.1603 38.8344 28.5935C38.85 28.5999 38.8612 28.6061 38.8765 28.6156C38.9302 28.6439 38.9876 28.6725 39.0454 28.7008C39.0491 28.7039 39.057 28.7073 39.0644 28.7103C40.1606 29.2351 41.8931 30.5329 43.8483 30.5329C44.3657 30.5329 44.868 30.5077 45.347 30.4634C45.4276 30.4569 45.504 30.4508 45.5845 30.4412C46.819 30.2515 48.1683 29.0813 49.1686 27.3578V27.3547C49.5519 26.7032 49.8815 25.9726 50.1462 25.1821C50.491 24.1381 50.6715 23.1199 50.6942 22.1934C50.6983 22.1528 50.6983 22.1146 50.6983 22.0737Z" fill="#543E36"/>
<path d="M35.0867 32.9511C37.1983 32.9511 38.9101 32.5144 38.9101 31.9757C38.9101 31.437 37.1983 31.0002 35.0867 31.0002C32.975 31.0002 31.2632 31.437 31.2632 31.9757C31.2632 32.5144 32.975 32.9511 35.0867 32.9511Z" fill="#ECC19C"/>
<path d="M35.0897 3.36182H35.0747C26.4615 3.36828 19.4813 9.13037 19.4813 16.2367V21.9139C19.4813 21.9139 20.1289 18.5265 21.8734 16.8821C23.7671 15.0952 23.288 12.3784 27.5353 12.3784C30.276 12.3784 30.4292 13.2132 35.0714 13.2132H35.0751H35.09H35.0938C39.7359 13.2132 39.8891 12.3784 42.6298 12.3784C46.8772 12.3784 46.3977 15.0949 48.2917 16.8821C50.0358 18.5265 50.6834 21.9139 50.6834 21.9139V16.2367C50.6831 9.13037 43.7029 3.36797 35.0897 3.36182Z" fill="#543E36"/>
<path d="M45.3889 47.2857L44.9672 47.6401C42.3376 49.8505 38.8262 51.0683 35.0811 51.0683C31.298 51.0619 27.7941 49.8413 25.176 47.6339L24.7734 47.2925C24.9728 47.1943 25.176 47.0993 25.3792 47.0076C25.3871 47.0012 25.3945 47.0046 25.3945 47.0046V47.0012C25.5593 46.9252 25.7204 46.8495 25.8814 46.7702C26.3605 46.5299 26.8206 46.2641 27.2497 45.9731C27.2535 45.9765 27.2535 45.9765 27.2576 45.9796C29.2433 47.6558 32.0071 48.6964 35.0737 48.7028H35.1046C38.1712 48.7028 40.9462 47.6591 42.9397 45.983L42.9434 45.9796C43.2156 46.1663 43.4993 46.3404 43.7905 46.5016C43.8211 46.5204 43.8479 46.5361 43.8785 46.5521C44.0165 46.628 44.1585 46.7006 44.3002 46.7735C44.4572 46.8526 44.6186 46.9286 44.7793 47.0012C44.8061 47.0076 44.8255 47.0202 44.8483 47.0298C45.0287 47.1122 45.2125 47.1974 45.3889 47.2857Z" fill="#C34628"/>
</svg>
