<svg width="75" height="308" viewBox="0 0 75 308" fill="none" xmlns="http://www.w3.org/2000/svg">
<path d="M37.5002 31.9583L15.127 24.4294V31.8366V37.0038C15.127 42.817 25.1472 47.5302 37.507 47.5302C49.8661 47.5302 59.888 42.817 59.888 37.0038C59.888 36.9581 59.8743 36.9121 59.8734 36.8674V24.4294L37.5002 31.9583Z" fill="black"/>
<path d="M0 15.7736L7.9928 18.8996L8.67394 17.3046L11.6103 17.0318L12.0289 17.508L9.50928 18.1613L9.14205 19.3497C9.14138 19.3497 3.45057 32.3574 4.28639 38.7208C4.28639 38.7208 7.8386 41.0374 11.3893 38.7208L12.3329 21.3225V19.8743L17.6183 18.5707L17.245 19.5757L13.3043 20.9768L15.1269 21.6887L37.5001 29.2176L59.8732 21.6887L75 15.7737L37.5001 0L0 15.7736Z" fill="black"/>
<path d="M9 187.68V144.272L10.0311 143.994C18.4089 141.75 20.2563 131.703 20.6143 128.68L20.7575 127.505H37.2839V168.194L33.2311 187.68H9Z" fill="#F7B05C"/>
<path d="M9 141.909L14.2558 127.492H20.7719L20.5714 128.984C20.0844 132.562 18.1511 141.143 10.9477 143.731L9 144.43V141.909Z" fill="#F7B05C"/>
<path d="M26.9728 122H37.284V127.505H26.9728V122Z" fill="#F7B05C"/>
<path d="M22.8483 122H26.9728V127.505H22.8483V122Z" fill="#F7B05C"/>
<path d="M14.2558 122H22.8484V127.505H14.2558V122Z" fill="#F7B05C"/>
<path d="M37.2839 122H47.595V127.505H37.2839V122Z" fill="#F7B05C"/>
<path d="M63.6202 143.717C56.4597 141.077 54.4978 132.548 54.0109 128.971L53.8104 127.479H60.3264L65.5822 141.895V144.417L63.6202 143.717Z" fill="#F7B05C"/>
<path d="M41.3368 187.68L37.2839 168.194V157.83L38.2578 157.527C41.8063 156.39 44.0613 153.174 43.7284 149.724V127.492H53.7531L53.8963 128.667C54.2543 131.69 56.1017 141.75 64.4795 143.981L65.5106 144.259V187.68H41.3368Z" fill="#F7B05C"/>
<path d="M47.595 122H51.7195V127.505H47.595V122Z" fill="#F7B05C"/>
<path d="M37.2839 127.492H43.7284V149.711C43.9758 152.749 42.2658 155.639 39.3605 157.091L37.2839 158.055V127.492Z" fill="#F7B05C"/>
<path d="M51.7195 122H60.3121V127.505H51.7195V122Z" fill="#F7B05C"/>
<path d="M61.8708 128.473V123.295C61.8708 122.58 61.245 122 60.4732 122H15.5268C14.755 122 14.1292 122.58 14.1292 123.295V128.473L9.06992 142.404C9.02241 142.538 8.99882 142.678 9.00005 142.818V187.705C9.00005 188.42 9.62582 189 10.3976 189H34.0448C34.7239 189.011 35.3135 188.569 35.4424 187.951L38 175.47L40.5855 187.951C40.7145 188.569 41.3041 189.011 41.9831 189H65.6024C66.3742 189 67 188.42 67 187.705V142.818C67.0012 142.678 66.9776 142.538 66.9301 142.404L61.8708 128.473ZM25.3099 124.589H26.5258V127.399H25.3099V124.589ZM16.9244 124.589H22.5147V127.399H16.9244V124.589ZM11.7952 143.026L16.533 129.975H20.3065C19.8733 133.173 18.1542 141.097 11.7952 143.388V143.026ZM36.6024 168.44L32.8848 186.41H11.7952V146.094C20.6839 143.712 22.6964 133.562 23.1297 129.975H36.6024V168.44ZM36.6024 127.347H29.335V124.589H36.6024V127.347ZM53.4853 124.589H59.0756V127.399H53.4853V124.589ZM49.4742 124.589H50.6901V127.399H49.4602L49.4742 124.589ZM39.4116 124.589H46.679V127.399H39.3976L39.4116 124.589ZM39.4116 129.988H42.9055V150.47C42.9055 150.664 43.213 154.781 39.4116 156.555V129.988ZM64.2048 186.41H43.1152L39.3976 168.44V159.377C43.4972 158.059 46.0941 154.317 45.6867 150.315V129.975H52.8703C53.3036 133.562 55.3161 143.712 64.2048 146.094V186.41ZM64.2048 143.401C57.8737 141.11 56.1407 133.186 55.6935 129.988H59.467L64.2048 143.039V143.401Z" fill="#4C382B"/>
<path d="M58.5165 249.949C47.2029 236.684 28.796 236.684 17.4846 249.946C6.17107 263.209 6.17216 284.79 17.4857 298.055C28.796 311.316 47.2029 311.316 58.5154 298.052C69.8278 284.79 69.8273 263.21 58.5165 249.949ZM55.3507 294.343C45.7838 305.559 30.2167 305.56 20.6493 294.344C11.0803 283.126 11.0814 264.873 20.6493 253.657C30.2162 242.441 45.7827 242.44 55.3518 253.658C64.9186 264.874 64.9175 283.127 55.3507 294.343ZM27.1778 264.794C27.1778 262.599 28.6965 260.818 30.5689 260.818C32.4408 260.818 33.9595 262.598 33.9595 264.794C33.9595 266.991 32.4408 268.771 30.5689 268.771C28.6965 268.771 27.1778 266.991 27.1778 264.794ZM42.554 264.794C42.554 262.599 44.0738 260.818 45.9462 260.818C47.8181 260.818 49.3368 262.598 49.3368 264.794C49.3368 266.991 47.8187 268.771 45.9462 268.771C44.0738 268.771 42.554 266.991 42.554 264.794ZM50.5711 281.077C48.4695 286.775 43.5477 290.457 38.0331 290.457C32.3998 290.457 27.4491 286.757 25.4202 281.03C25.0724 280.05 25.4689 278.924 26.3061 278.516C26.5117 278.417 26.725 278.369 26.935 278.369C27.5781 278.369 28.1884 278.815 28.4504 279.555C29.969 283.842 33.7303 286.611 38.0331 286.611C42.2385 286.611 45.9779 283.84 47.5595 279.551C47.9193 278.576 48.8851 278.126 49.7163 278.549C50.5476 278.971 50.9309 280.103 50.5711 281.077Z" fill="black"/>
</svg>
