<svg width="49" height="53" viewBox="0 0 49 53" fill="none" xmlns="http://www.w3.org/2000/svg">
<path d="M48.9626 20.0299C48.9625 19.9446 48.946 19.8157 48.9174 19.7415C48.8421 19.4253 48.6747 19.1364 48.4242 18.9348L41.4099 13.2901V7.23907C41.4099 6.43693 40.8479 5.78636 40.155 5.78636H32.0854L25.2194 0.260241C24.7903 -0.0855432 24.2205 -0.0869837 23.7901 0.25736L16.8797 5.78636H8.84546C8.15238 5.78636 7.5906 6.43693 7.5906 7.23907V13.2189L0.542254 18.8583C0.195522 19.1358 0.00794336 19.5793 0.00200977 20.0327C0.00162695 20.0413 0 20.0494 0 20.0582L0.0374199 51.5494C0.0378984 51.9346 0.170543 52.3039 0.406068 52.576C0.641307 52.8475 0.959998 53 1.29228 53H1.294L47.7469 52.9261C48.4398 52.925 49.001 52.2736 49 51.4714L48.9626 20.0299ZM41.4098 16.8287L45.4196 20.0548L41.4098 23.282V16.8287ZM24.5014 3.22073L27.6893 5.78625H21.2952L24.5014 3.22073ZM10.1003 8.69179H38.9001V25.3019L29.2306 33.0842L25.2882 29.544C25.2821 29.5384 25.2768 29.535 25.2709 29.53C24.8303 29.1473 24.2071 29.1333 23.7498 29.544L19.7788 33.1098L10.1003 25.3662V8.69179ZM7.5906 16.7506V23.3583L3.46139 20.0546L7.5906 16.7506ZM2.51297 22.8292L17.6981 34.9781L2.5436 48.5861L2.51297 22.8292ZM4.9646 50.0888L24.519 32.5299L44.0033 50.0267L4.9646 50.0888ZM31.3087 34.9503L46.4562 22.7591L46.4868 48.5804L31.3087 34.9503Z" fill="black"/>
</svg>
