<svg width="63" height="55" viewBox="0 0 63 55" fill="none" xmlns="http://www.w3.org/2000/svg">
<path d="M32.0396 0.00463234C14.645 -0.288839 0.301875 13.3987 0.00469401 30.5761C-0.164105 40.3159 4.2318 49.0695 11.231 54.8908C11.6887 54.4964 12.1796 54.1348 12.7252 53.8414L22.1245 48.7784C23.3572 48.114 24.1251 46.838 24.1251 45.4504V41.647C24.1251 41.647 21.3661 38.3883 20.3141 33.8607C19.4415 33.3031 18.8567 32.3393 18.8567 31.2417V27.0791C18.8567 26.1635 19.2692 25.3453 19.9099 24.7724V18.7551C19.9099 18.7551 18.6582 9.39102 31.5 9.39102C44.3418 9.39102 43.09 18.7551 43.09 18.7551V24.7724C43.7319 25.3453 44.1432 26.1635 44.1432 27.0791V31.2417C44.1432 32.641 43.1923 33.8184 41.9013 34.2117C41.1821 36.4197 40.1444 38.5245 38.7726 40.438C38.4267 40.9204 38.1033 41.3289 37.8204 41.647V45.5467C37.8204 46.9824 38.6418 48.2959 39.9423 48.9369L50.0072 53.9059C50.6111 54.2041 51.1567 54.5809 51.6596 55C58.4472 49.41 62.8324 41.0519 62.9952 31.6397C63.2948 14.4622 49.4354 0.298104 32.0396 0.00463234Z" fill="#556080"/>
</svg>
