<svg width="39" height="33" viewBox="0 0 39 33" fill="none" xmlns="http://www.w3.org/2000/svg">
<path d="M38.5475 0.806923C38.4808 0.728371 38.4073 0.656113 38.3285 0.588387C38.3249 0.585114 38.3219 0.581589 38.3181 0.578567C38.3148 0.575798 38.3109 0.57328 38.3076 0.570511C37.8664 0.200912 37.2525 0 36.5419 0C36.1387 0 35.7057 0.0644531 35.2555 0.191597L2.11087 9.53931C0.357327 10.034 0.0377447 10.8976 0.00352488 11.3682C-0.0309924 11.839 0.160341 12.7292 1.82788 13.403L10.1507 16.7661L6.42613 24.5481C6.4169 24.567 6.40857 24.5861 6.40113 24.6052C5.98722 25.6559 6.15386 26.6005 6.85879 27.1967C7.309 27.5776 7.92704 27.7728 8.63851 27.7728C9.04082 27.7728 9.47288 27.7103 9.92131 27.5839C9.94422 27.5774 9.96654 27.5706 9.98885 27.5628L19.1865 24.4114L23.1611 31.4531C23.9208 32.7988 24.9221 33 25.4514 33C25.9243 33 27.0925 32.8258 27.7275 31.2137L38.7757 3.16978C39.1396 2.24604 39.0587 1.40689 38.5475 0.806923ZM2.47479 11.4978C2.56525 11.4591 2.68368 11.4163 2.83365 11.374L34.4982 2.44318L16.634 17.5584C15.9824 17.0947 15.301 16.7044 14.6546 16.4434L2.81252 11.658C2.66999 11.6003 2.559 11.5457 2.47479 11.4978ZM9.16728 25.7583C8.77301 25.8653 8.54954 25.847 8.47812 25.8266C8.45402 25.7659 8.4323 25.5771 8.55876 25.2435L12.2167 17.601L13.6697 18.1884C15.0528 18.747 16.845 20.2637 17.5056 21.4337L18.1998 22.6633L9.16728 25.7583ZM25.5594 30.6024C25.5094 30.7295 25.4589 30.8295 25.413 30.906C25.3562 30.8348 25.2913 30.7409 25.2232 30.6198L19.5677 20.6003C19.2591 20.0535 18.7979 19.4772 18.2498 18.9256L36.1146 3.81029L25.5594 30.6024Z" fill="black"/>
</svg>
